<?xml version="1.0" encoding="utf-8"?>
<!-- Generator: Adobe Illustrator 21.1.0, SVG Export Plug-In . SVG Version: 6.00 Build 0)  -->
<svg version="1.1" id="Layer_1" xmlns="http://www.w3.org/2000/svg" xmlns:xlink="http://www.w3.org/1999/xlink" x="0px" y="0px"
	 viewBox="0 0 585.2 166.1" style="enable-background:new 0 0 585.2 166.1;" xml:space="preserve">
<style type="text/css">
	.st0{fill:#0F0F0E;}
	.st1{fill-rule:evenodd;clip-rule:evenodd;fill:#0F0F0E;}
</style>
<g>
	<g>
		<path class="st0" d="M410.3,128.7c-0.7,3.3-2,5.6-3.9,7.4c-2.4,2.3-5.3,3.5-9.6,3.5c-5.3-0.1-8.9-1.9-12-6.3
			c-3.1-4.5-4.7-10.1-4.7-17c0-7.4,1.5-13.5,4.4-18.5c2.8-4.6,6.4-6.6,12.5-6.7c5.4,0,8.7,1.4,10.6,3.5c2.4,2.8,3,3.7,3.5,9.9
			l0.2,3.1h11.5V81h-11.7v3.2c-3.7-2.6-8.3-3.9-13.3-3.8c-6.2,0-11.8,1.5-16.3,4.6c-4.5,3.1-7.9,7.4-10.1,12.8
			c-2.2,5.3-3.2,11.3-3.2,18c0,9.4,2.3,17.6,7.1,24.3c4.9,6.8,12.3,10.4,21,10.4c7.1,0,13.3-2,18.1-6.2c4.1-3.5,6.6-8.4,7.7-14.2
			l0.7-3.9h-12.1L410.3,128.7z"/>
		<path class="st0" d="M539.6,139.4h-5.1l-0.6-18.5c0-6.2-0.9-11.3-3.3-15.2c-2.7-4.4-7.8-6.3-13.8-6.3c-4.4-0.1-8.2,1.9-11.2,5.1
			c-0.9-1.2-2-2.2-3.3-2.9c-2.6-1.5-5.7-2.2-9.2-2.2c-3.1,0-6.1,0.9-8.7,2.6v-2.6h-18.3v10h6.7v30h-1.7h-5h-1.7v-21.7
			c0-5.8-1.5-10.8-5-14c-3.4-3-8.1-4.3-13.7-4.3c-8.1-0.2-14.9,3.5-17.4,10.4l-1.8,4.6h11.9l1-1.7c1.2-1.9,2.8-2.9,6.7-3
			c5.7,0.5,6.8,1.5,7.3,7.7h-4.7c-3.6,0-7,0.3-10,0.9c-3.4,0.6-6.5,2.2-8.9,4.5c-2.9,2.7-4.2,6.5-4.1,10.8c0,5,1.5,9.5,4.8,12.5
			l2.3-2.5l-2.3,2.5c3.1,2.9,7.4,4.4,12,4.3c3.7,0,7.2-1,10.3-2.9c0.6-0.4,1.1-0.8,1.7-1.2l0.3,3h11.3h5h18.3v-10h-5v-18.2
			c1-9.1,2.7-10.5,7.7-10.8c2.3,0,3.4,0.5,3.9,1c0.8,0.8,1.3,1.7,1.6,3.1c0.1,0.6,0.2,1.3,0.2,2.1c0,1.1-0.1,2.6-0.1,4.4v18.3h-3.3
			v10h18.3v-10h-3.3V121c0-3.9,0.3-6,1.6-8.1c1.2-1.8,2.3-2.5,5.2-2.6c3.5,0.1,4.5,0.9,5,1.9c0.9,1.6,1.5,4.8,1.5,9.4v0l0,17.8h-1.7
			h-3.3v10h3.3h18.3V139.4z M450.8,136.4c-1.6,2.6-3.5,3.7-7.4,3.8c-1.9,0-3.2-0.5-4.5-1.7c-1.1-1.1-1.7-2.3-1.8-4.6
			c0.2-4.1,1.8-5.8,11.1-6.2h5.2C453.1,131.2,452.2,134.1,450.8,136.4z"/>
		<path class="st0" d="M580.5,107c-3.3-5-8.9-7.6-15.2-7.5c-4,0-7.6,1.4-10.7,3.9v-4h-18.3v10h6.7v46.7h-6.7v10h3.3h21.7v-10h-6.7
			v-9.2c3,2.4,6.7,3.6,10.7,3.6c4.2,0,8.2-1.3,11.3-4c3-2.5,5.2-5.8,6.6-9.7c1.4-3.7,2.1-7.7,2.1-11.8
			C585.2,117.8,583.7,111.8,580.5,107z M557.5,136.3c-1.8-3.1-2.8-6.7-2.8-11c0-4.5,1-8.3,2.8-11.6c1.8-3,3.4-3.9,6.6-4
			c2.2,0,3.6,0.6,5,1.8c1.5,1.3,2.6,3.1,3.5,5.5c0.8,2.5,1.3,5.1,1.3,8c0,2.8-0.4,5.5-1.2,8c-0.8,2.4-1.9,4.1-3.4,5.4
			c-1.3,1.2-2.8,1.7-5.1,1.8C561,140,559.3,139.1,557.5,136.3z"/>
		<polygon class="st0" points="346.2,106 352.2,106 341.2,137.6 330.2,106 336.2,106 336.2,99.4 316.2,99.4 316.2,106 321.6,106 
			336.6,149.4 337.8,149.4 345.7,149.4 360.7,106 366.2,106 366.2,99.4 346.2,99.4 		"/>
		<path class="st0" d="M267.8,81h-16.7v6.7h8.3v15.9c-1-1.1-2.2-2.2-3.5-3c-3-1.8-6.3-2.8-9.8-2.8c-4.5,0-8.6,1.1-12,3.5
			c-3.3,2.3-5.9,5.5-7.5,9.4c-1.7,3.9-2.5,8.3-2.5,13.2c0,7.9,1.8,14.4,5.4,19.4c3.7,5.1,9.5,7.6,16.7,7.6c3.5,0,6.8-1,9.8-3.1
			c1.2-0.8,2.4-1.8,3.4-2.8v4.5h15v-6.7h-6.7V81z M236.3,138.3c-2.3-3.6-3.5-8.4-3.5-14.5c0-5.6,1.2-10.1,3.5-13.6
			c2.3-3.4,5.4-5,10-5.1c4.8,0,7.8,1.6,9.9,4.8c2.2,3.3,3.3,7.8,3.3,13.5c-0.2,14.3-4.3,19.9-13,20
			C241.7,143.4,238.5,141.8,236.3,138.3z"/>
		<path class="st0" d="M296,97.8c-7,0-12.8,2.4-16.7,7.3c-3.9,4.8-5.8,10.9-5.8,18.1c0,8.7,1.9,15.5,5.9,20.3
			c4,4.8,9.9,7.2,17.3,7.2c4.9,0,9.5-1.5,13.5-4.5c4.1-3,6.4-7.4,6.7-12.7l0.1-1.8h-7.8l-0.2,1.4c-0.6,3.4-2,5.8-4.3,7.5
			c-2.4,1.8-5,2.7-8.2,2.7c-4.8,0-8.1-1.6-10.5-4.7c-2.2-2.9-3.4-6.8-3.6-11.7h35.3v-1.7c0-8.3-1.7-14.9-5.3-19.9
			C308.7,100.3,303,97.8,296,97.8z M295.5,105.1c4.4,0,7.4,1.4,9.7,4.3c2.1,2.6,3.3,6,3.6,10.2h-26.4c0.4-4,1.7-7.3,3.9-10.1
			C288.7,106.6,291.6,105.2,295.5,105.1z"/>
	</g>
	<path class="st1" d="M169.2,102.7H89.8c5.6-5.7,12.2-10.7,19.6-15c14.3-8.3,29.4-12.5,44.7-12.5c4.4,0,8.8,0.3,13.3,1l6.8,1l-3.5-6
		l-4.7-8.1l-0.8-1.4l-1.6-0.3c-4.7-0.8-9.5-1.1-14.2-1.1c-16.2,0-32.4,4.6-48.2,13.7c-13.4,7.7-24,17.3-31.7,28.6H55.7l42.6-73.9
		l9.9,5.7l2.9,1.7l1.7-2.9l3.9-6.8l1.7-2.9l-2.9-1.7L94.2,9.8l-2.9-1.7L89.7,11l-52.9,91.7h-6.5c-0.4-1.3-0.8-3.4-0.8-6.5V77.4
		c0-8.8-2.9-13.9-6.4-16.8c3.5-3,6.4-8.1,6.4-16.9V24.6c0-8.3,3.6-9.5,7.1-9.6l3.2-0.1v-3.3V3.4V0l-3.4,0
		C21.3,0.2,13.2,8.5,13.2,23.8v19c0,10.3-4.9,10.6-7,10.7l-3.1,0.2v3.1v7.5v3.1l3.1,0.2c3.5,0.2,7,1.6,7,10.5v19.5
		c0,2.4,0.2,4.6,0.6,6.7c-0.1,0-0.2,0.1-0.2,0.1c-0.5,0.2-0.9,0.4-1.3,0.6c-0.2,0.1-0.4,0.2-0.6,0.3c0,0,0,0,0,0
		C4.8,109.2,0,116.2,0,124.3v5c0,11.9,10.4,21.8,22.5,21.8h146.7c12.1,0,22.5-9.9,22.5-21.8v-1.6v-3.4
		C191.7,112.4,181.3,102.7,169.2,102.7z M33.4,137.5c-5.1,0-9.2-4.1-9.2-9.2s4.1-9.2,9.2-9.2s9.2,4.1,9.2,9.2S38.4,137.5,33.4,137.5
		z M158.3,137.5c-5.1,0-9.2-4.1-9.2-9.2s4.1-9.2,9.2-9.2s9.2,4.1,9.2,9.2S163.4,137.5,158.3,137.5z"/>
</g>
</svg>
